<svg width="235" height="94" viewBox="0 0 235 94" fill="none" xmlns="http://www.w3.org/2000/svg">
<rect x="24" y="16" width="187" height="62" rx="4" stroke="#2D2D2D" stroke-width="2"/>
<path d="M61.8695 59V35.64H65.8695V45.176H68.6215L73.0695 35.64H77.3895L72.1415 46.776L77.6455 59H73.1975L68.5895 48.664H65.8695V59H61.8695ZM79.745 59L85.633 35.64H90.785L96.705 59H92.609L91.329 53.336H85.121L83.841 59H79.745ZM85.857 50.072H90.593L89.185 43.8C88.9503 42.7547 88.7477 41.816 88.577 40.984C88.4063 40.1307 88.289 39.512 88.225 39.128C88.161 39.512 88.0437 40.1307 87.873 40.984C87.7237 41.816 87.521 42.744 87.265 43.768L85.857 50.072ZM107.509 59.32C105.93 59.32 104.543 59.0427 103.349 58.488C102.175 57.9333 101.258 57.1333 100.597 56.088C99.9565 55.0427 99.6365 53.816 99.6365 52.408H103.573C103.573 53.4533 103.925 54.2853 104.629 54.904C105.354 55.5227 106.314 55.832 107.509 55.832C108.661 55.832 109.567 55.5227 110.229 54.904C110.911 54.2853 111.253 53.4747 111.253 52.472C111.253 51.704 111.039 51.0213 110.613 50.424C110.186 49.8267 109.557 49.432 108.725 49.24L105.589 48.44C103.903 48.0133 102.57 47.2133 101.589 46.04C100.607 44.8667 100.117 43.4693 100.117 41.848C100.117 40.5253 100.405 39.3733 100.981 38.392C101.578 37.4107 102.41 36.6533 103.477 36.12C104.565 35.5867 105.834 35.32 107.285 35.32C108.757 35.32 110.037 35.5867 111.125 36.12C112.213 36.6533 113.055 37.4107 113.653 38.392C114.271 39.352 114.581 40.4827 114.581 41.784H110.677C110.677 40.8667 110.367 40.1413 109.749 39.608C109.13 39.0533 108.309 38.776 107.285 38.776C106.282 38.776 105.482 39.0533 104.885 39.608C104.309 40.1413 104.021 40.8453 104.021 41.72C104.021 42.4453 104.223 43.0427 104.629 43.512C105.055 43.9813 105.642 44.3227 106.389 44.536L109.621 45.336C111.349 45.7627 112.703 46.616 113.685 47.896C114.687 49.176 115.189 50.7013 115.189 52.472C115.189 53.8587 114.869 55.064 114.229 56.088C113.61 57.112 112.725 57.912 111.573 58.488C110.421 59.0427 109.066 59.32 107.509 59.32ZM119.464 59V35.64H126.824C128.381 35.64 129.725 35.928 130.856 36.504C132.008 37.08 132.904 37.8907 133.544 38.936C134.184 39.96 134.504 41.176 134.504 42.584C134.504 44.12 134.12 45.4747 133.352 46.648C132.584 47.8213 131.549 48.6533 130.248 49.144L134.824 59H130.44L126.344 49.72H123.432V59H119.464ZM123.432 46.2H126.824C127.955 46.2 128.84 45.8907 129.48 45.272C130.12 44.6533 130.44 43.8 130.44 42.712C130.44 41.6027 130.12 40.7387 129.48 40.12C128.84 39.48 127.955 39.16 126.824 39.16H123.432V46.2ZM137.308 59L143.196 35.64H148.348L154.267 59H150.172L148.892 53.336H142.684L141.404 59H137.308ZM143.42 50.072H148.156L146.748 43.8C146.513 42.7547 146.31 41.816 146.14 40.984C145.969 40.1307 145.852 39.512 145.788 39.128C145.724 39.512 145.606 40.1307 145.436 40.984C145.286 41.816 145.084 42.744 144.828 43.768L143.42 50.072ZM164.975 59.32C164.079 59.32 163.354 59.0533 162.799 58.52C162.266 57.9653 161.999 57.2507 161.999 56.376C161.999 55.48 162.266 54.7653 162.799 54.232C163.354 53.6773 164.079 53.4 164.975 53.4C165.871 53.4 166.586 53.6773 167.119 54.232C167.674 54.7653 167.951 55.48 167.951 56.376C167.951 57.2507 167.674 57.9653 167.119 58.52C166.586 59.0533 165.871 59.32 164.975 59.32Z" fill="#2F2F2F"/>
</svg>
