<svg width="121" height="61" viewBox="0 0 121 61" fill="none" xmlns="http://www.w3.org/2000/svg">
<path d="M18.0783 54.5176C22.4617 54.5176 26.02 50.9593 26.02 46.5759V38.6343H18.0783C13.695 38.6343 10.1367 42.1926 10.1367 46.5759C10.1367 50.9593 13.695 54.5176 18.0783 54.5176Z" fill="#0ACF83"/>
<path d="M10.1284 30.6843C10.1284 26.301 13.6867 22.7427 18.07 22.7427H26.0117V38.6343H18.07C13.6867 38.6343 10.1284 35.076 10.1284 30.6927V30.6843Z" fill="#A259FF"/>
<path d="M10.1284 14.7927C10.1284 10.4094 13.6867 6.85107 18.07 6.85107H26.0117V22.7427H18.07C13.6867 22.7427 10.1284 19.1844 10.1284 14.8011V14.7927Z" fill="#F24E1E"/>
<path d="M25.945 6.85107H33.8867C38.27 6.85107 41.8283 10.4094 41.8283 14.7927C41.8283 19.1761 38.27 22.7344 33.8867 22.7344H25.945V6.85107Z" fill="#FF7262"/>
<path d="M41.9117 30.6843C41.9117 35.0677 38.3533 38.626 33.97 38.626C29.5867 38.626 25.945 35.0677 25.945 30.6843C25.945 26.301 29.5033 22.7427 33.8867 22.7427C38.27 22.7427 41.8283 26.301 41.8283 30.6843H41.9117Z" fill="#1ABCFE"/>
<path d="M50.595 20.0176V36.6676H52.7367V28.7176H57.8867V26.6509H52.7367V22.1009H59.4284V20.0176H50.595ZM63.3034 23.4009C64.0784 23.4009 64.7034 22.7759 64.7034 22.0009C64.7034 21.2259 64.07 20.6842 63.3034 20.6842C62.5367 20.6842 61.9034 21.3092 61.9034 22.0842C61.9034 22.4592 62.0534 22.8092 62.32 23.0842C62.5867 23.3592 62.9367 23.5009 63.32 23.5009L63.3034 23.4009ZM62.22 25.5009V36.6676H64.2784V25.5009H62.1534H62.22ZM72.32 25.1676C69.47 25.1676 67.4867 27.6676 67.4867 30.4342C67.4867 33.2009 69.4867 35.6842 72.32 35.6842C72.9096 35.6946 73.4948 35.5821 74.0386 35.354C74.5823 35.1259 75.0726 34.7871 75.4784 34.3592V35.8426C75.4724 36.7338 75.1267 37.5892 74.5117 38.2342C74.201 38.5512 73.8302 38.8029 73.4209 38.9746C73.0116 39.1464 72.5722 39.2346 72.1284 39.2342C71.4469 39.2127 70.7865 38.9926 70.2284 38.6009L69.145 40.4592C69.977 40.9943 70.9378 41.2951 71.9263 41.3299C72.9149 41.3647 73.8945 41.1323 74.762 40.6572C75.6296 40.1821 76.3529 39.4817 76.8559 38.63C77.3589 37.7783 77.6229 36.8067 77.62 35.8176V25.4842H75.4784V26.4842C75.0726 26.0564 74.5823 25.7176 74.0386 25.4895C73.4948 25.2614 72.9096 25.1573 72.32 25.1676ZM69.6367 30.4342C69.5879 29.8925 69.6916 29.3478 69.936 28.8619C70.1805 28.3759 70.5559 27.968 71.02 27.6842C71.97 27.1009 73.1617 27.1009 74.1034 27.6842C75.045 28.2676 75.5784 29.3342 75.4867 30.4342C75.5355 30.976 75.4318 31.5207 75.1874 32.0066C74.9429 32.4926 74.5674 32.9005 74.1034 33.1842C73.1534 33.7676 71.9617 33.7676 71.02 33.1842C70.0784 32.6009 69.545 31.5342 69.6367 30.4342Z" fill="black"/>
<path d="M85.345 27.3509C84.7291 27.3531 84.139 27.5988 83.7034 28.0343C83.2679 28.4699 83.0222 29.06 83.02 29.6759V36.7426H80.8784V25.5759H83.02V26.5176C83.67 25.6509 84.7034 25.1509 85.7867 25.1676C87.1534 25.1343 88.4284 25.8676 89.1034 27.0593C89.9367 25.8926 91.1367 25.1843 92.4367 25.1676C94.8784 25.1676 96.395 27.1343 96.4034 29.5676V36.6759H94.2617V29.5926C94.3245 29.1514 94.2595 28.7014 94.0746 28.2959C93.8897 27.8904 93.5925 27.5463 93.2182 27.3044C92.8439 27.0624 92.4082 26.9327 91.9625 26.9307C91.5168 26.9286 91.0799 27.0542 90.7034 27.2926C90.3289 27.5367 90.0324 27.8833 89.8493 28.291C89.6661 28.6987 89.6039 29.1505 89.67 29.5926V36.6593H87.6117V29.6009C87.6095 28.985 87.3638 28.3949 86.9283 27.9593C86.4927 27.5238 85.9026 27.2781 85.2867 27.2759L85.345 27.3509ZM107.845 26.7676C107.358 26.2589 106.771 25.8553 106.122 25.5816C105.473 25.3079 104.775 25.1698 104.07 25.1759C100.878 25.1759 98.6534 27.8759 98.6534 31.0093C98.6534 34.1426 100.903 36.8426 104.07 36.8426C104.775 36.8487 105.473 36.7106 106.122 36.4369C106.771 36.1632 107.358 35.7596 107.845 35.2509V36.5176H109.987V25.3509H107.845V26.7676ZM100.762 31.1009C100.653 29.7676 101.303 28.4843 102.445 27.7843C103.587 27.0843 104.945 27.0843 106.162 27.7843C106.719 28.1301 107.171 28.6223 107.467 29.2071C107.764 29.7919 107.895 30.447 107.845 31.1009C107.953 32.4343 107.303 33.7176 106.162 34.4176C105.02 35.1176 103.662 35.1176 102.445 34.4176C101.888 34.0717 101.436 33.5796 101.139 32.9948C100.843 32.4099 100.712 31.7549 100.762 31.1009Z" fill="black"/>
</svg>
