<svg width="512" height="104" viewBox="0 0 512 104" fill="none" xmlns="http://www.w3.org/2000/svg">
<g clip-path="url(#clip0_31_51)">
<path d="M429.543 0.0429771V16.5036H394.166V103.1H376.476V16.5036H340.362V0.0429771H429.543ZM433.52 93.2825C434.766 93.2825 435.856 93.7313 436.779 94.6289C437.715 95.5265 438.181 96.6013 438.194 97.8532C438.181 98.7035 437.965 99.4829 437.534 100.18C437.091 100.888 436.528 101.444 435.82 101.845C435.125 102.258 434.358 102.471 433.52 102.471C432.224 102.471 431.122 102.022 430.2 101.125C429.277 100.227 428.821 99.1405 428.832 97.8532C428.821 96.6013 429.277 95.5265 430.2 94.6289C431.122 93.7313 432.224 93.2825 433.52 93.2825ZM82.9163 103.1L17.6888 22.0285V103.057H0V0H22.111L104.517 102.329L104.518 16.5036L104.511 0.0429771H193.692V16.5036H122.207V42.9836H179.695V59.4441H122.207V86.6399H193.692V103.1H82.9163ZM250.385 59.2866L261.978 73.7004L238.223 103.222H215.008L250.385 59.2866ZM238.223 0.0859596L268.153 37.2561L297.989 0.200361L321.14 0.164586L279.743 51.6501L321.206 103.143H297.989L215.074 0.0859596H238.223ZM463.711 59.0558H471.549V89.2551C471.538 92.0306 470.937 94.4045 469.764 96.4005C468.577 98.3964 466.935 99.9198 464.826 100.995C462.728 102.057 460.271 102.601 457.478 102.601C454.925 102.601 452.637 102.14 450.599 101.243C448.561 100.345 446.944 98.9987 445.757 97.2271C444.558 95.4555 443.97 93.247 443.97 90.6015H451.822C451.834 91.759 452.097 92.7627 452.6 93.6013C453.103 94.4398 453.798 95.0775 454.686 95.5263C455.584 95.9752 456.616 96.1996 457.777 96.1996C459.037 96.1996 460.115 95.9397 460.99 95.4082C461.864 94.8885 462.536 94.1091 463.004 93.0698C463.459 92.0424 463.699 90.7668 463.711 89.2551V59.0558ZM503.802 70.8663C503.61 69.0357 502.771 67.6066 501.309 66.5909C499.834 65.5634 497.929 65.0556 495.591 65.0556C493.95 65.0556 492.536 65.3037 491.361 65.7878C490.187 66.2839 489.276 66.9452 488.652 67.7837C488.03 68.6223 487.718 69.579 487.693 70.6538C487.693 71.5514 487.909 72.3308 488.328 72.9804C488.748 73.6417 489.311 74.1969 490.042 74.6457C490.761 75.1062 491.564 75.4841 492.44 75.7912C493.326 76.0983 494.214 76.3582 495.1 76.5708L499.187 77.5746C500.83 77.9525 502.424 78.4605 503.946 79.11C505.467 79.7478 506.846 80.5627 508.056 81.5429C509.267 82.5232 510.226 83.7042 510.933 85.0861C511.64 86.4678 512 88.0858 512 89.9519C512 92.4675 511.353 94.6761 510.046 96.5893C508.74 98.4907 506.858 99.9789 504.389 101.054C501.932 102.117 498.96 102.66 495.46 102.66C492.08 102.66 489.132 102.14 486.651 101.101C484.158 100.074 482.216 98.5617 480.813 96.5775C479.411 94.5934 478.656 92.1722 478.548 89.3259H486.316C486.423 90.814 486.903 92.0542 487.718 93.0581C488.544 94.0501 489.623 94.7824 490.942 95.2784C492.272 95.7626 493.758 96.0107 495.4 96.0107C497.114 96.0107 498.624 95.7508 499.93 95.2429C501.225 94.7351 502.243 94.0266 502.975 93.1054C503.718 92.1959 504.09 91.1212 504.102 89.8929C504.09 88.7709 503.753 87.8378 503.106 87.1055C502.447 86.3734 501.536 85.7592 500.373 85.2632C499.2 84.7672 497.833 84.3183 496.275 83.9286L491.313 82.6767C487.729 81.7673 484.889 80.3856 482.815 78.5313C480.73 76.6771 479.699 74.2205 479.699 71.138C479.699 68.6106 480.394 66.3903 481.797 64.4887C483.186 62.5873 485.093 61.111 487.502 60.0598C489.923 58.997 492.656 58.4772 495.699 58.4772C498.792 58.4772 501.5 58.997 503.838 60.0598C506.174 61.111 508.009 62.5755 509.339 64.4414C510.669 66.3075 511.365 68.4452 511.401 70.8663H503.802Z" fill="black"/>
</g>
<defs>
<clipPath id="clip0_31_51">
<rect width="512" height="104" fill="white"/>
</clipPath>
</defs>
</svg>
