<svg width="128" height="128" viewBox="0 0 128 128" fill="none" xmlns="http://www.w3.org/2000/svg">
<path d="M64 56.7999C69.1363 56.7999 73.3 52.6362 73.3 47.5C73.3 42.3637 69.1363 38.2 64 38.2C58.8638 38.2 54.7 42.3637 54.7 47.5C54.7 52.6362 58.8638 56.7999 64 56.7999Z" fill="#61DAFB"/>
<path d="M64 81.7C71.3 88.8 78.5 93 84.3 93C86.2 93 88 92.6 89.5 91.7C94.7 88.7 96.6 81.2 94.8 70.5C94.5 68.6 94.1 66.7 93.6 64.7C95.6 64.1 97.4 63.5 99.2 62.9C109.3 59 114.9 53.6 114.9 47.7C114.9 41.7 109.3 36.3 99.2 32.5C97.4 31.8 95.6 31.2 93.6 30.7C94.1 28.7 94.5 26.8 94.8 24.9C96.5 14 94.6 6.39998 89.4 3.39998C87.9 2.49998 86.1 2.09998 84.2 2.09998C78.5 2.09998 71.2 6.29997 63.9 13.4C56.7 6.29997 49.5 2.09998 43.7 2.09998C41.8 2.09998 40 2.49998 38.5 3.39998C33.3 6.39998 31.4 13.9 33.2 24.6C33.5 26.5 33.9 28.4 34.4 30.4C32.4 31 30.6 31.6 28.8 32.2C18.7 36.1 13.1 41.5 13.1 47.4C13.1 53.4 18.7 58.8 28.8 62.6C30.6 63.3 32.4 63.9 34.4 64.4C33.9 66.4 33.5 68.3 33.2 70.2C31.5 80.9 33.4 88.5 38.5 91.4C40 92.3 41.8 92.7 43.7 92.7C49.5 92.9 56.7 88.7 64 81.7ZM58.4 68.2C60.2 68.3 62.1 68.3 64 68.3C65.9 68.3 67.8 68.3 69.6 68.2C67.8 70.6 65.9 72.8 64 74.9C62.1 72.8 60.2 70.6 58.4 68.2ZM46 57.9C47 59.6 47.9 61.2 49 62.8C45.9 62.4 43 61.9 40.2 61.3C41.1 58.6 42.1 55.8 43.3 53C44.1 54.6 45 56.3 46 57.9ZM40.2 33.8C43 33.2 45.9 32.7 49 32.3C48 33.9 47 35.5 46 37.2C45 38.9 44.1 40.5 43.3 42.2C42 39.3 41 36.5 40.2 33.8ZM45.7 47.5C47 44.8 48.4 42.1 50 39.4C51.5 36.8 53.2 34.2 54.9 31.6C57.9 31.4 60.9 31.3 64 31.3C67.2 31.3 70.2 31.4 73.1 31.6C74.9 34.2 76.5 36.8 78 39.4C79.6 42.1 81 44.8 82.3 47.5C81 50.2 79.6 52.9 78 55.6C76.5 58.2 74.8 60.8 73.1 63.4C70.1 63.6 67.1 63.7 64 63.7C60.8 63.7 57.8 63.6 54.9 63.4C53.1 60.8 51.5 58.2 50 55.6C48.4 52.9 47 50.2 45.7 47.5ZM84.8 42.1L82.1 37.1C81.1 35.4 80.2 33.8 79.1 32.2C82.2 32.6 85.1 33.1 87.9 33.7C87 36.5 86 39.3 84.8 42.1ZM84.8 52.9C86 55.7 87 58.5 87.9 61.2C85.1 61.8 82.2 62.3 79.1 62.7C80.1 61.1 81.1 59.5 82.1 57.8C83 56.3 83.9 54.6 84.8 52.9ZM87.1 87.6C86.3 88.1 85.3 88.3 84.2 88.3C79.3 88.3 73.2 84.3 67.2 78.3C70.1 75.2 72.9 71.7 75.7 67.8C80.4 67.4 84.9 66.7 89.1 65.7C89.6 67.5 89.9 69.3 90.2 71.1C91.6 79.6 90.5 85.7 87.1 87.6ZM92.3 34.9C103.5 38.1 110.2 43 110.2 47.5C110.2 51.4 105.6 55.3 97.5 58.4C95.9 59 94.1 59.6 92.3 60.1C91 56 89.4 51.8 87.4 47.5C89.4 43.2 91.1 39 92.3 34.9ZM84.3 6.69998C85.4 6.69998 86.3 6.89998 87.2 7.39998C90.5 9.29998 91.7 15.3 90.3 23.9C90 25.6 89.6 27.4 89.2 29.3C85 28.4 80.5 27.7 75.8 27.2C73.1 23.3 70.2 19.8 67.3 16.7C73.3 10.8 79.4 6.69998 84.3 6.69998ZM69.6 26.8C67.8 26.7 65.9 26.7 64 26.7C62.1 26.7 60.2 26.7 58.4 26.8C60.2 24.4 62.1 22.2 64 20.1C65.9 22.2 67.8 24.5 69.6 26.8ZM40.9 7.39998C41.7 6.89998 42.7 6.69998 43.8 6.69998C48.7 6.69998 54.8 10.7 60.8 16.7C57.9 19.8 55.1 23.3 52.3 27.2C47.6 27.6 43.1 28.3 38.9 29.3C38.4 27.5 38.1 25.7 37.8 23.9C36.4 15.4 37.5 9.39998 40.9 7.39998ZM35.7 60.1C24.5 56.9 17.8 52 17.8 47.5C17.8 43.6 22.4 39.7 30.5 36.6C32.1 36 33.9 35.4 35.7 34.9C37 39 38.6 43.2 40.6 47.5C38.6 51.8 36.9 56.1 35.7 60.1ZM37.8 71.1C38.1 69.4 38.5 67.6 38.9 65.7C43.1 66.6 47.6 67.3 52.3 67.8C55 71.7 57.9 75.2 60.8 78.3C54.8 84.2 48.7 88.3 43.8 88.3C42.7 88.3 41.8 88.1 40.9 87.6C37.5 85.7 36.4 79.6 37.8 71.1ZM33.6 112.3C35.8 109.6 35.9 106.6 34.7 103.6C33.5 100.6 31 99.2 27.9 99.1C24.2 99 20.4 99.1 16.7 99.1H16V125H19V115.2H23.7C24.3 115.2 24.8 115.4 25.1 115.9L31.1 125.2C31.2 125.4 31.5 125.7 31.7 125.7H35.6C33.2 122 30.9 118.5 28.5 114.9C30.6 114.6 32.4 113.9 33.6 112.3ZM19 112.1V102.2H20.1C22.4 102.2 24.8 102.1 27.1 102.3C29.8 102.4 31.7 104.5 31.7 107.2C31.7 109.9 29.5 112 26.8 112.1C24.4 112.2 22 112.1 19 112.1ZM57.7 113.4C56.1 106.4 49.7 104.6 44.8 106.8C41 108.5 39.3 111.8 39.2 115.9C39.1 119 40 121.8 42.4 123.9C45.1 126.3 48.4 126.6 51.8 126C53.7 125.6 55.4 124.7 56.7 123.3C56.2 122.6 55.7 121.9 55.2 121.3C52.4 123.7 49.3 124.5 45.9 122.9C43.7 121.8 42.6 119.1 42.4 117.1H57.9V115.8C58 114.9 57.9 114.1 57.7 113.4ZM42.6 115C42.3 112 45.3 108.8 48.6 108.8C52.4 108.7 54.8 111 54.9 115H42.6ZM73.3 106.3C71.8 106 70.2 105.9 68.7 106C66.3 106.2 64.2 107.3 62.5 109.1C63 109.8 63.4 110.5 64 111.3C64.2 111.1 64.4 110.9 64.6 110.8C66.2 109.3 68.1 108.5 70.4 108.7C72.2 108.8 73.9 109.4 74.4 111.2C74.8 112.6 74.7 114.1 74.8 115.6C74.5 115.6 74.4 115.5 74.3 115.4C71.9 113.4 69.2 113 66.3 113.7C63.6 114.4 61.9 116.5 61.7 119.2C61.5 122.3 62.9 124.6 65.6 125.7C67.3 126.4 69.2 126.4 71 126C72.4 125.7 73 124.9 75 123.8V125.1H77.8C77.8 121.1 77.9 116.2 77.8 111.6C77.8 108.7 76.1 106.9 73.3 106.3ZM74.7 118.9C74.6 119.2 74.7 119.5 74.7 119.8C74.7 121.9 74.2 122.6 72.2 123.4C70.8 123.9 69.3 124.1 67.8 123.6C66.1 123.1 64.9 121.6 64.9 119.9C64.8 118.2 65.9 116.5 67.6 116C69.9 115.2 72 115.7 73.9 117.1C74.5 117.6 74.9 118.1 74.7 118.9ZM90.3 109C92.9 108.2 95.3 108.7 97.1 110.9L97.4 111.1C98.1 110.5 98.7 109.9 99.5 109.2C99.2 108.9 99.1 108.7 98.9 108.4C96 105.3 90.3 104.9 86.8 107.4C81.9 111 82 118 84.4 121.7C86.7 125.2 90 126.4 93.9 125.9C96.2 125.6 98.1 124.5 99.6 122.6C98.9 122 98.2 121.4 97.5 120.7C97.3 120.9 97.2 121 97.1 121.2C94.4 124.2 89.9 123.9 87.5 120.7C86.1 118.8 85.8 116.6 86.2 114.4C86.4 111.9 87.7 109.9 90.3 109ZM111.1 122.6C110.9 122.7 110.8 122.8 110.8 122.8C110 123.4 109.2 123.5 108.3 123.2C107.4 122.8 107.3 122 107.2 121.2V109.8C107.2 109.6 107.2 110 107.3 109H111.1V106H107.1V101H104.1V106.4H101.5C101.3 106.4 101 106.6 101 106.8C100.9 107.5 101 108 101 109H104.2V121.8C104.2 123.4 104.6 124.8 106 125.6C107.5 126.5 110.4 126.3 111.7 125.2C111.9 125.1 112 124.7 112 124.6C111.7 124 111.4 123.3 111.1 122.6Z" fill="#61DAFB"/>
</svg>
